<?xml version="1.0" encoding="utf-8"?>
<!-- Generator: Adobe Illustrator 19.0.0, SVG Export Plug-In . SVG Version: 6.00 Build 0)  -->
<svg version="1.1" id="Layer_2" xmlns="http://www.w3.org/2000/svg" xmlns:xlink="http://www.w3.org/1999/xlink" x="0px" y="0px"
	 width="100px" height="100px" viewBox="-909 226 100 100" style="enable-background:new -909 226 100 100;" xml:space="preserve">
<g>
	<path d="M-859.1,248.1c-26.1,0-47.4,21.3-47.4,47.5c0,2,0.1,4.1,0.3,6.2l0.2,2.2h91.4l2.2,0l0.2-2.2c0.2-2,0.4-4,0.4-6.1
		C-811.5,269.4-832.9,248.1-859.1,248.1z M-861.3,296.1l2.2-12.8l2.3,12.9c-0.1,1.2-1.1,2.1-2.3,2.1
		C-860.3,298.3-861.2,297.3-861.3,296.1z M-816.7,298.9h-35.6c0.3-0.8,0.6-1.6,0.6-2.4l0-0.5l-3.6-20.5c-0.4-1.8-2-3.1-3.9-3
		c-1.8,0.1-3.3,1.4-3.5,3.1l-3.5,19.9l0,0.6c0,1,0.2,2,0.6,2.8h-35.7c-0.1-1.1-0.1-2.3-0.1-3.4c0-23.4,19-42.5,42.4-42.5
		c23.4,0,42.5,19.1,42.5,42.5C-816.5,296.7-816.6,297.8-816.7,298.9z"/>
	<path d="M-859,256.6c-1.4,0-2.5,1.1-2.5,2.5v5c0,1.4,1.1,2.5,2.5,2.5s2.5-1.1,2.5-2.5v-5C-856.5,257.7-857.6,256.6-859,256.6z"/>
	<path d="M-834.1,268.9l-0.1-0.1c-0.9-0.9-2.5-0.9-3.4,0l-3.7,3.7c-1,1-0.9,2.5,0.1,3.5c0,0,0,0,0,0c1,0.9,2.5,1,3.4,0l3.7-3.7
		C-833.2,271.3-833.2,269.8-834.1,268.9z"/>
	<path d="M-880.3,268.7c-0.9-0.9-2.5-0.9-3.4,0l-0.1,0.1c-0.9,0.9-0.9,2.5,0,3.4l3.7,3.7c1,1,2.5,0.9,3.4,0c0,0,0,0,0,0
		c1-1,1-2.5,0.1-3.5L-880.3,268.7z"/>
	<path d="M-886.3,289.1h-5.7c-1.1,0-2,0.9-2,2v1c0,1.1,0.9,2,2,2h5.7c1.1,0,2-0.9,2-2c0,0,0,0,0,0c0-0.3,0-0.6,0-0.9
		C-884.3,290-885.2,289.1-886.3,289.1z"/>
	<path d="M-833.7,291.1c0,0.3,0,0.6,0,0.9c0,0,0,0,0,0c0,1.1,0.9,2,2,2h5.8c1.1,0,2-0.9,2-2v-1c0-1.1-0.9-2-2-2h-5.8
		C-832.8,289.1-833.7,290-833.7,291.1z"/>
</g>
</svg>
