<svg width="28" height="38" viewBox="0 0 28 38" fill="none" xmlns="http://www.w3.org/2000/svg">
<path d="M27.4538 4.80281V35.3084C27.4538 36.7946 26.1475 38 24.5368 38H2.91697C1.30634 38 0 36.7946 0 35.3084V4.80281C0 3.31659 1.30634 2.11115 2.91697 2.11115C2.93047 2.11115 24.5233 2.11115 24.5368 2.11115C26.1475 2.11115 27.4538 3.31659 27.4538 4.80281Z" fill="white"/>
<path d="M18.8745 0C20.1385 0 21.1623 0.944722 21.1623 2.11111C21.1623 2.69378 20.9061 3.22156 20.492 3.60367C20.0779 3.98578 19.5059 4.22222 18.8745 4.22222H8.57932C7.3153 4.22222 6.2915 3.2775 6.2915 2.11111C6.2915 1.52844 6.54774 1.00067 6.96183 0.618556C7.37593 0.236445 7.94788 0 8.57932 0H18.8745Z" fill="#9A9A9A"/>
<path d="M18.3029 9.76385V12.4027H15.4432V14.7777H12.5834V12.4027H9.72363V9.76385H12.5834V7.38885H15.4432V9.76385H18.3029Z" fill="#909090"/>
<path d="M13.7266 19H4.57537C4.25954 19 4.00342 18.7637 4.00342 18.4722C4.00342 18.1808 4.25954 17.9445 4.57537 17.9445H13.7266C14.0425 17.9445 14.2986 18.1808 14.2986 18.4722C14.2986 18.7637 14.0425 19 13.7266 19Z" fill="#909090"/>
<path d="M22.8779 22.1667H4.57537C4.25954 22.1667 4.00342 21.9305 4.00342 21.6389C4.00342 21.3474 4.25954 21.1111 4.57537 21.1111H22.8779C23.1938 21.1111 23.4499 21.3474 23.4499 21.6389C23.4499 21.9305 23.1938 22.1667 22.8779 22.1667Z" fill="#909090"/>
<path d="M22.8779 25.3333H4.57537C4.25954 25.3333 4.00342 25.0971 4.00342 24.8055C4.00342 24.514 4.25954 24.2778 4.57537 24.2778H22.8779C23.1938 24.2778 23.4499 24.514 23.4499 24.8055C23.4499 25.0971 23.1938 25.3333 22.8779 25.3333Z" fill="#909090"/>
<path d="M22.8779 28.5H4.57537C4.25954 28.5 4.00342 28.2638 4.00342 27.9722C4.00342 27.6807 4.25954 27.4445 4.57537 27.4445H22.8779C23.1938 27.4445 23.4499 27.6807 23.4499 27.9722C23.4499 28.2638 23.1938 28.5 22.8779 28.5Z" fill="#909090"/>
<path d="M22.8779 31.6667H4.57537C4.25954 31.6667 4.00342 31.4305 4.00342 31.1389C4.00342 30.8474 4.25954 30.6111 4.57537 30.6111H22.8779C23.1938 30.6111 23.4499 30.8474 23.4499 31.1389C23.4499 31.4305 23.1938 31.6667 22.8779 31.6667Z" fill="#909090"/>
<path d="M22.8779 34.8334H4.57537C4.25954 34.8334 4.00342 34.5972 4.00342 34.3056C4.00342 34.0141 4.25954 33.7778 4.57537 33.7778H22.8779C23.1938 33.7778 23.4499 34.0141 23.4499 34.3056C23.4499 34.5972 23.1938 34.8334 22.8779 34.8334Z" fill="#909090"/>
</svg>
