<svg width="36" height="36" viewBox="0 0 36 36" fill="none" xmlns="http://www.w3.org/2000/svg">
<path d="M12.9057 34.2C13.5849 34.875 15.1698 36 16.9811 36C23.0943 36 24.4528 31.5 24.6792 27.9C25.1321 22.725 26.4906 22.95 27.1698 22.95C28.7547 22.95 29.2075 23.85 29.2075 25.425C27.8491 26.325 26.9434 27.675 26.9434 29.25C26.9434 31.725 28.9811 33.75 31.4717 33.75C33.9623 33.75 36 31.725 36 29.25C36 26.775 33.9623 24.75 31.4717 24.75C31.2453 24.75 31.2453 24.75 31.0189 24.75C30.566 22.725 29.434 20.7 26.9434 20.7C23.3208 20.7 22.4151 23.85 22.1887 27.225C21.9623 31.95 20.3774 33.75 16.9811 33.75C16.0755 33.75 15.1698 33.3 14.717 32.85C13.3585 31.725 13.5849 27.675 13.5849 27.675C18.1132 27.675 22.6415 23.625 24.2264 16.875L23.7736 16.65C24.4528 13.95 24.9057 10.8 24.9057 8.55C24.9057 6.075 24.2264 4.275 22.6415 2.925C21.0566 1.575 19.2453 1.125 17.8868 1.125C17.434 0.45 16.7547 0 15.8491 0C14.717 0 13.5849 0.9 13.5849 2.25C13.5849 3.6 14.4906 4.5 15.8491 4.5C16.7547 4.5 17.434 4.05 17.6604 3.375C18.7925 3.375 19.9245 3.825 21.0566 4.725C22.1887 5.625 22.6415 6.75 22.6415 8.55C22.6415 10.575 22.1887 13.5 21.5094 16.425L21.0566 16.2C20.3774 18.675 18.1132 24.3 13.5849 24.3H11.3208C6.79245 24.3 4.5283 18.675 3.84906 16.2L3.39623 16.425C2.71698 13.5 2.26415 10.575 2.26415 8.55C2.26415 6.75 2.71698 5.625 3.84906 4.725C4.75472 3.825 6.11321 3.6 7.24528 3.375C7.4717 4.05 8.15094 4.5 9.0566 4.5C10.4151 4.5 11.3208 3.6 11.3208 2.25C11.3208 0.9 10.4151 0 9.0566 0C8.15094 0 7.4717 0.45 7.01887 1.125C5.66038 1.125 3.84906 1.575 2.26415 2.925C0.679245 4.275 0 6.075 0 8.55C0 10.8 0.45283 13.95 1.13208 16.875L0.679245 17.1C2.26415 23.625 6.79245 27.675 11.3208 27.675C11.3208 27.675 11.0943 32.625 12.9057 34.2ZM31.6981 31.5C30.3396 31.5 29.434 30.6 29.434 29.25C29.434 27.9 30.3396 27 31.6981 27C33.0566 27 33.9623 27.9 33.9623 29.25C33.9623 30.6 32.8302 31.5 31.6981 31.5Z" fill="white"/>
</svg>
